<svg xmlns="http://www.w3.org/2000/svg" xmlns:xlink="http://www.w3.org/1999/xlink" width="500" zoomAndPan="magnify" viewBox="0 0 375 374.999991" height="500" preserveAspectRatio="xMidYMid meet" version="1.0"><defs><filter x="0%" y="0%" width="100%" height="100%" id="id1"><feColorMatrix values="0 0 0 0 1 0 0 0 0 1 0 0 0 0 1 0 0 0 1 0" color-interpolation-filters="sRGB"/></filter><g/><mask id="id2"><g filter="url(#id1)"><rect x="-37.5" width="450" fill="#000000" y="-37.499999" height="449.999989" fill-opacity="0.6471"/></g></mask><clipPath id="id3"><path d="M 0 0 L 375 0 L 375 375 L 0 375 Z M 0 0 " clip-rule="nonzero"/></clipPath><clipPath id="id4"><rect x="0" width="375" y="0" height="375"/></clipPath><clipPath id="id5"><path d="M 77.519531 146.480469 L 141.269531 146.480469 L 141.269531 150.980469 L 77.519531 150.980469 Z M 77.519531 146.480469 " clip-rule="nonzero"/></clipPath><clipPath id="id6"><path d="M 233.769531 146.273438 L 297.519531 146.273438 L 297.519531 150.773438 L 233.769531 150.773438 Z M 233.769531 146.273438 " clip-rule="nonzero"/></clipPath></defs><rect x="-37.5" width="450" fill="#ffffff" y="-37.499999" height="449.999989" fill-opacity="1"/><rect x="-37.5" width="450" fill="#f162ff" y="-37.499999" height="449.999989" fill-opacity="1"/><rect x="-37.5" width="450" fill="#ffffff" y="-37.499999" height="449.999989" fill-opacity="1"/><g mask="url(#id2)"><g transform="matrix(1, 0, 0, 1, 0, 0)"><g clip-path="url(#id4)"><g clip-path="url(#id3)"><rect x="-82.5" width="540" fill="#f162ff" height="539.999987" y="-82.499998" fill-opacity="1"/></g></g></g></g><g fill="#320e3e" fill-opacity="1"><g transform="translate(57.007814, 204.374972)"><g><path d="M 3.140625 0 L 3.140625 -32.296875 L 28.546875 -32.296875 L 28.546875 -27.078125 L 9.90625 -27.078125 L 9.90625 -18.953125 L 27.140625 -18.953125 L 27.140625 -13.734375 L 9.90625 -13.734375 L 9.90625 -5.234375 L 29.484375 -5.234375 L 29.484375 0 Z M 3.140625 0 "/></g></g></g><g fill="#320e3e" fill-opacity="1"><g transform="translate(88.327785, 204.374972)"><g><path d="M 3.28125 0 L 3.28125 -34.015625 L 9.71875 -34.015625 L 9.71875 0 Z M 3.28125 0 "/></g></g></g><g fill="#320e3e" fill-opacity="1"><g transform="translate(101.373957, 204.374972)"><g><path d="M 19.34375 0 C 19.289062 -0.226562 19.21875 -0.804688 19.125 -1.734375 C 19.039062 -2.660156 19 -3.425781 19 -4.03125 L 18.921875 -4.03125 C 17.523438 -1.039062 14.878906 0.453125 10.984375 0.453125 C 8.097656 0.453125 5.863281 -0.671875 4.28125 -2.921875 C 2.707031 -5.179688 1.921875 -8.332031 1.921875 -12.375 C 1.921875 -16.488281 2.75 -19.664062 4.40625 -21.90625 C 6.070312 -24.144531 8.425781 -25.265625 11.46875 -25.265625 C 13.21875 -25.265625 14.726562 -24.894531 16 -24.15625 C 17.28125 -23.425781 18.265625 -22.335938 18.953125 -20.890625 L 19 -20.890625 L 18.953125 -24.96875 L 18.953125 -34.015625 L 25.40625 -34.015625 L 25.40625 -5.40625 C 25.40625 -3.882812 25.460938 -2.082031 25.578125 0 Z M 19.046875 -12.546875 C 19.046875 -15.210938 18.597656 -17.269531 17.703125 -18.71875 C 16.816406 -20.164062 15.5 -20.890625 13.75 -20.890625 C 12.03125 -20.890625 10.75 -20.1875 9.90625 -18.78125 C 9.0625 -17.382812 8.640625 -15.25 8.640625 -12.375 C 8.640625 -6.75 10.328125 -3.9375 13.703125 -3.9375 C 15.398438 -3.9375 16.710938 -4.679688 17.640625 -6.171875 C 18.578125 -7.660156 19.046875 -9.785156 19.046875 -12.546875 Z M 19.046875 -12.546875 "/></g></g></g><g fill="#320e3e" fill-opacity="1"><g transform="translate(130.057186, 204.374972)"><g><path d="M 13.4375 0.453125 C 9.707031 0.453125 6.835938 -0.648438 4.828125 -2.859375 C 2.828125 -5.066406 1.828125 -8.285156 1.828125 -12.515625 C 1.828125 -16.609375 2.84375 -19.753906 4.875 -21.953125 C 6.914062 -24.160156 9.800781 -25.265625 13.53125 -25.265625 C 17.09375 -25.265625 19.8125 -24.082031 21.6875 -21.71875 C 23.570312 -19.363281 24.515625 -15.90625 24.515625 -11.34375 L 24.515625 -11.171875 L 8.59375 -11.171875 C 8.59375 -8.753906 9.039062 -6.929688 9.9375 -5.703125 C 10.832031 -4.472656 12.101562 -3.859375 13.75 -3.859375 C 16.03125 -3.859375 17.46875 -4.84375 18.0625 -6.8125 L 24.140625 -6.28125 C 22.378906 -1.789062 18.8125 0.453125 13.4375 0.453125 Z M 13.4375 -21.203125 C 11.925781 -21.203125 10.757812 -20.675781 9.9375 -19.625 C 9.125 -18.570312 8.691406 -17.097656 8.640625 -15.203125 L 18.265625 -15.203125 C 18.148438 -17.203125 17.671875 -18.703125 16.828125 -19.703125 C 15.984375 -20.703125 14.851562 -21.203125 13.4375 -21.203125 Z M 13.4375 -21.203125 "/></g></g></g><g fill="#320e3e" fill-opacity="1"><g transform="translate(156.172453, 204.374972)"><g><path d="M 19.34375 0 L 19.34375 -13.921875 C 19.34375 -18.273438 17.867188 -20.453125 14.921875 -20.453125 C 13.367188 -20.453125 12.113281 -19.78125 11.15625 -18.4375 C 10.195312 -17.101562 9.71875 -15.390625 9.71875 -13.296875 L 9.71875 0 L 3.28125 0 L 3.28125 -19.265625 C 3.28125 -20.585938 3.257812 -21.671875 3.21875 -22.515625 C 3.175781 -23.367188 3.132812 -24.132812 3.09375 -24.8125 L 9.234375 -24.8125 C 9.285156 -24.519531 9.347656 -23.742188 9.421875 -22.484375 C 9.492188 -21.222656 9.53125 -20.351562 9.53125 -19.875 L 9.625 -19.875 C 10.5 -21.769531 11.59375 -23.144531 12.90625 -24 C 14.21875 -24.851562 15.785156 -25.28125 17.609375 -25.28125 C 20.234375 -25.28125 22.25 -24.46875 23.65625 -22.84375 C 25.0625 -21.226562 25.765625 -18.863281 25.765625 -15.75 L 25.765625 0 Z M 19.34375 0 "/></g></g></g><g fill="#320e3e" fill-opacity="1"><g transform="translate(184.855682, 204.374972)"><g><path d="M 24.1875 -7.25 C 24.1875 -4.84375 23.203125 -2.957031 21.234375 -1.59375 C 19.273438 -0.226562 16.5625 0.453125 13.09375 0.453125 C 9.6875 0.453125 7.078125 -0.0820312 5.265625 -1.15625 C 3.453125 -2.238281 2.25 -3.914062 1.65625 -6.1875 L 7.3125 -7.03125 C 7.632812 -5.851562 8.1875 -5.019531 8.96875 -4.53125 C 9.757812 -4.050781 11.132812 -3.8125 13.09375 -3.8125 C 14.894531 -3.8125 16.207031 -4.039062 17.03125 -4.5 C 17.851562 -4.957031 18.265625 -5.675781 18.265625 -6.65625 C 18.265625 -7.445312 17.929688 -8.070312 17.265625 -8.53125 C 16.609375 -9 15.484375 -9.394531 13.890625 -9.71875 C 10.253906 -10.4375 7.800781 -11.101562 6.53125 -11.71875 C 5.257812 -12.34375 4.289062 -13.144531 3.625 -14.125 C 2.96875 -15.113281 2.640625 -16.328125 2.640625 -17.765625 C 2.640625 -20.140625 3.550781 -21.984375 5.375 -23.296875 C 7.195312 -24.617188 9.785156 -25.28125 13.140625 -25.28125 C 16.085938 -25.28125 18.457031 -24.707031 20.25 -23.5625 C 22.050781 -22.414062 23.171875 -20.757812 23.609375 -18.59375 L 17.90625 -18 C 17.71875 -19.007812 17.265625 -19.757812 16.546875 -20.25 C 15.828125 -20.75 14.691406 -21 13.140625 -21 C 11.609375 -21 10.457031 -20.800781 9.6875 -20.40625 C 8.925781 -20.019531 8.546875 -19.367188 8.546875 -18.453125 C 8.546875 -17.734375 8.835938 -17.164062 9.421875 -16.75 C 10.015625 -16.332031 11.007812 -15.984375 12.40625 -15.703125 C 14.34375 -15.304688 16.0625 -14.894531 17.5625 -14.46875 C 19.070312 -14.050781 20.28125 -13.550781 21.1875 -12.96875 C 22.101562 -12.394531 22.832031 -11.648438 23.375 -10.734375 C 23.914062 -9.828125 24.1875 -8.664062 24.1875 -7.25 Z M 24.1875 -7.25 "/></g></g></g><g fill="#320e3e" fill-opacity="1"><g transform="translate(210.970949, 204.374972)"><g><path d="M 13.625 0.453125 C 9.863281 0.453125 6.957031 -0.664062 4.90625 -2.90625 C 2.851562 -5.144531 1.828125 -8.265625 1.828125 -12.265625 C 1.828125 -16.359375 2.859375 -19.546875 4.921875 -21.828125 C 6.992188 -24.117188 9.921875 -25.265625 13.703125 -25.265625 C 16.628906 -25.265625 19.046875 -24.53125 20.953125 -23.0625 C 22.867188 -21.59375 24.066406 -19.566406 24.546875 -16.984375 L 18.0625 -16.671875 C 17.882812 -17.941406 17.425781 -18.953125 16.6875 -19.703125 C 15.957031 -20.460938 14.921875 -20.84375 13.578125 -20.84375 C 10.253906 -20.84375 8.59375 -18.066406 8.59375 -12.515625 C 8.59375 -6.796875 10.285156 -3.9375 13.671875 -3.9375 C 14.890625 -3.9375 15.910156 -4.320312 16.734375 -5.09375 C 17.554688 -5.875 18.066406 -7.023438 18.265625 -8.546875 L 24.734375 -8.25 C 24.503906 -6.550781 23.894531 -5.035156 22.90625 -3.703125 C 21.925781 -2.378906 20.632812 -1.351562 19.03125 -0.625 C 17.425781 0.09375 15.625 0.453125 13.625 0.453125 Z M 13.625 0.453125 "/></g></g></g><g fill="#320e3e" fill-opacity="1"><g transform="translate(237.086215, 204.374972)"><g><path d="M 9.015625 0.453125 C 6.609375 0.453125 4.734375 -0.195312 3.390625 -1.5 C 2.046875 -2.8125 1.375 -4.648438 1.375 -7.015625 C 1.375 -9.578125 2.207031 -11.53125 3.875 -12.875 C 5.550781 -14.226562 7.984375 -14.921875 11.171875 -14.953125 L 16.5 -15.046875 L 16.5 -16.296875 C 16.5 -17.921875 16.21875 -19.125 15.65625 -19.90625 C 15.09375 -20.695312 14.171875 -21.09375 12.890625 -21.09375 C 11.691406 -21.09375 10.8125 -20.820312 10.25 -20.28125 C 9.695312 -19.738281 9.351562 -18.835938 9.21875 -17.578125 L 2.5 -17.90625 C 2.914062 -20.320312 4.019531 -22.148438 5.8125 -23.390625 C 7.601562 -24.640625 10.050781 -25.265625 13.15625 -25.265625 C 16.289062 -25.265625 18.707031 -24.492188 20.40625 -22.953125 C 22.101562 -21.410156 22.953125 -19.21875 22.953125 -16.375 L 22.953125 -7.34375 C 22.953125 -5.945312 23.109375 -4.984375 23.421875 -4.453125 C 23.734375 -3.929688 24.253906 -3.671875 24.984375 -3.671875 C 25.472656 -3.671875 25.945312 -3.71875 26.40625 -3.8125 L 26.40625 -0.328125 C 26.03125 -0.234375 25.6875 -0.144531 25.375 -0.0625 C 25.070312 0.0078125 24.765625 0.0664062 24.453125 0.109375 C 24.148438 0.160156 23.828125 0.203125 23.484375 0.234375 C 23.140625 0.265625 22.738281 0.28125 22.28125 0.28125 C 20.664062 0.28125 19.46875 -0.113281 18.6875 -0.90625 C 17.914062 -1.707031 17.457031 -2.878906 17.3125 -4.421875 L 17.171875 -4.421875 C 15.367188 -1.171875 12.648438 0.453125 9.015625 0.453125 Z M 16.5 -11.484375 L 13.203125 -11.4375 C 11.703125 -11.375 10.640625 -11.207031 10.015625 -10.9375 C 9.390625 -10.675781 8.910156 -10.269531 8.578125 -9.71875 C 8.253906 -9.164062 8.09375 -8.429688 8.09375 -7.515625 C 8.09375 -6.335938 8.363281 -5.460938 8.90625 -4.890625 C 9.445312 -4.316406 10.171875 -4.03125 11.078125 -4.03125 C 12.085938 -4.03125 13.003906 -4.304688 13.828125 -4.859375 C 14.660156 -5.410156 15.3125 -6.171875 15.78125 -7.140625 C 16.257812 -8.109375 16.5 -9.132812 16.5 -10.21875 Z M 16.5 -11.484375 "/></g></g></g><g fill="#320e3e" fill-opacity="1"><g transform="translate(263.201494, 204.374972)"><g><path d="M 26.75 -12.515625 C 26.75 -8.378906 25.921875 -5.179688 24.265625 -2.921875 C 22.609375 -0.671875 20.265625 0.453125 17.234375 0.453125 C 15.492188 0.453125 13.976562 0.078125 12.6875 -0.671875 C 11.394531 -1.429688 10.40625 -2.519531 9.71875 -3.9375 L 9.578125 -3.9375 C 9.671875 -3.476562 9.71875 -2.085938 9.71875 0.234375 L 9.71875 9.75 L 3.28125 9.75 L 3.28125 -19.09375 C 3.28125 -21.4375 3.21875 -23.34375 3.09375 -24.8125 L 9.359375 -24.8125 C 9.429688 -24.53125 9.492188 -23.984375 9.546875 -23.171875 C 9.597656 -22.367188 9.625 -21.566406 9.625 -20.765625 L 9.71875 -20.765625 C 11.175781 -23.804688 13.820312 -25.328125 17.65625 -25.328125 C 20.539062 -25.328125 22.773438 -24.210938 24.359375 -21.984375 C 25.953125 -19.765625 26.75 -16.609375 26.75 -12.515625 Z M 20.03125 -12.515625 C 20.03125 -18.078125 18.328125 -20.859375 14.921875 -20.859375 C 13.210938 -20.859375 11.898438 -20.109375 10.984375 -18.609375 C 10.078125 -17.117188 9.625 -15.023438 9.625 -12.328125 C 9.625 -9.660156 10.078125 -7.59375 10.984375 -6.125 C 11.898438 -4.664062 13.195312 -3.9375 14.875 -3.9375 C 18.3125 -3.9375 20.03125 -6.796875 20.03125 -12.515625 Z M 20.03125 -12.515625 "/></g></g></g><g fill="#320e3e" fill-opacity="1"><g transform="translate(291.884735, 204.374972)"><g><path d="M 13.4375 0.453125 C 9.707031 0.453125 6.835938 -0.648438 4.828125 -2.859375 C 2.828125 -5.066406 1.828125 -8.285156 1.828125 -12.515625 C 1.828125 -16.609375 2.84375 -19.753906 4.875 -21.953125 C 6.914062 -24.160156 9.800781 -25.265625 13.53125 -25.265625 C 17.09375 -25.265625 19.8125 -24.082031 21.6875 -21.71875 C 23.570312 -19.363281 24.515625 -15.90625 24.515625 -11.34375 L 24.515625 -11.171875 L 8.59375 -11.171875 C 8.59375 -8.753906 9.039062 -6.929688 9.9375 -5.703125 C 10.832031 -4.472656 12.101562 -3.859375 13.75 -3.859375 C 16.03125 -3.859375 17.46875 -4.84375 18.0625 -6.8125 L 24.140625 -6.28125 C 22.378906 -1.789062 18.8125 0.453125 13.4375 0.453125 Z M 13.4375 -21.203125 C 11.925781 -21.203125 10.757812 -20.675781 9.9375 -19.625 C 9.125 -18.570312 8.691406 -17.097656 8.640625 -15.203125 L 18.265625 -15.203125 C 18.148438 -17.203125 17.671875 -18.703125 16.828125 -19.703125 C 15.984375 -20.703125 14.851562 -21.203125 13.4375 -21.203125 Z M 13.4375 -21.203125 "/></g></g></g><g clip-path="url(#id5)"><path fill="#320e3e" d="M 77.578125 146.480469 L 141.210938 146.480469 L 141.210938 150.980469 L 77.578125 150.980469 L 77.578125 146.480469 " fill-opacity="1" fill-rule="nonzero"/></g><g clip-path="url(#id6)"><path fill="#320e3e" d="M 233.828125 146.273438 L 297.460938 146.273438 L 297.460938 150.773438 L 233.828125 150.773438 L 233.828125 146.273438 " fill-opacity="1" fill-rule="nonzero"/></g><g fill="#320e3e" fill-opacity="1"><g transform="translate(164.679999, 157.12499)"><g><path d="M 9.71875 -14.84375 L 9.71875 0 L 6.015625 0 L 6.015625 -14.84375 L 0.296875 -14.84375 L 0.296875 -17.71875 L 15.453125 -17.71875 L 15.453125 -14.84375 Z M 9.71875 -14.84375 "/></g></g></g><g fill="#320e3e" fill-opacity="1"><g transform="translate(180.406744, 157.12499)"><g><path d="M 5.28125 -10.890625 C 5.757812 -11.929688 6.359375 -12.6875 7.078125 -13.15625 C 7.796875 -13.625 8.65625 -13.859375 9.65625 -13.859375 C 11.09375 -13.859375 12.195312 -13.410156 12.96875 -12.515625 C 13.738281 -11.628906 14.125 -10.332031 14.125 -8.625 L 14.125 0 L 10.609375 0 L 10.609375 -7.625 C 10.609375 -10.007812 9.800781 -11.203125 8.1875 -11.203125 C 7.332031 -11.203125 6.640625 -10.832031 6.109375 -10.09375 C 5.585938 -9.363281 5.328125 -8.425781 5.328125 -7.28125 L 5.328125 0 L 1.796875 0 L 1.796875 -18.65625 L 5.328125 -18.65625 L 5.328125 -13.5625 C 5.328125 -12.65625 5.296875 -11.765625 5.234375 -10.890625 Z M 5.28125 -10.890625 "/></g></g></g><g fill="#320e3e" fill-opacity="1"><g transform="translate(196.133488, 157.12499)"><g><path d="M 7.375 0.25 C 5.320312 0.25 3.742188 -0.351562 2.640625 -1.5625 C 1.546875 -2.769531 1 -4.535156 1 -6.859375 C 1 -9.109375 1.554688 -10.835938 2.671875 -12.046875 C 3.785156 -13.253906 5.367188 -13.859375 7.421875 -13.859375 C 9.367188 -13.859375 10.859375 -13.207031 11.890625 -11.90625 C 12.921875 -10.613281 13.4375 -8.71875 13.4375 -6.21875 L 13.4375 -6.125 L 4.71875 -6.125 C 4.71875 -4.800781 4.960938 -3.800781 5.453125 -3.125 C 5.941406 -2.445312 6.640625 -2.109375 7.546875 -2.109375 C 8.796875 -2.109375 9.582031 -2.648438 9.90625 -3.734375 L 13.234375 -3.4375 C 12.273438 -0.976562 10.320312 0.25 7.375 0.25 Z M 7.375 -11.625 C 6.539062 -11.625 5.898438 -11.332031 5.453125 -10.75 C 5.003906 -10.175781 4.765625 -9.375 4.734375 -8.34375 L 10.015625 -8.34375 C 9.953125 -9.4375 9.6875 -10.253906 9.21875 -10.796875 C 8.757812 -11.347656 8.144531 -11.625 7.375 -11.625 Z M 7.375 -11.625 "/></g></g></g><g fill="#320e3e" fill-opacity="1"><g transform="translate(130.893225, 232.04165)"><g><path d="M 5.890625 -4.265625 L 2.78125 -4.265625 L 2.78125 -1.65625 L 6.453125 -1.65625 L 6.453125 0 L 0.796875 0 L 0.796875 -9.859375 L 6.4375 -9.859375 L 6.4375 -8.203125 L 2.78125 -8.203125 L 2.78125 -5.875 L 5.890625 -5.875 Z M 5.890625 -4.265625 "/></g></g><g transform="translate(137.702001, 232.04165)"><g><path d="M 3.9375 -1.96875 C 3.9375 -2.125 3.859375 -2.269531 3.703125 -2.40625 C 3.546875 -2.550781 3.203125 -2.738281 2.671875 -2.96875 C 1.878906 -3.289062 1.332031 -3.625 1.03125 -3.96875 C 0.738281 -4.3125 0.59375 -4.738281 0.59375 -5.25 C 0.59375 -5.894531 0.820312 -6.425781 1.28125 -6.84375 C 1.75 -7.257812 2.363281 -7.46875 3.125 -7.46875 C 3.9375 -7.46875 4.582031 -7.257812 5.0625 -6.84375 C 5.539062 -6.425781 5.78125 -5.867188 5.78125 -5.171875 L 3.875 -5.171875 C 3.875 -5.765625 3.625 -6.0625 3.125 -6.0625 C 2.914062 -6.0625 2.742188 -6 2.609375 -5.875 C 2.484375 -5.75 2.421875 -5.570312 2.421875 -5.34375 C 2.421875 -5.175781 2.492188 -5.03125 2.640625 -4.90625 C 2.785156 -4.789062 3.128906 -4.617188 3.671875 -4.390625 C 4.453125 -4.097656 5.003906 -3.773438 5.328125 -3.421875 C 5.648438 -3.066406 5.8125 -2.609375 5.8125 -2.046875 C 5.8125 -1.390625 5.5625 -0.859375 5.0625 -0.453125 C 4.570312 -0.0546875 3.925781 0.140625 3.125 0.140625 C 2.59375 0.140625 2.117188 0.0351562 1.703125 -0.171875 C 1.296875 -0.390625 0.972656 -0.6875 0.734375 -1.0625 C 0.503906 -1.4375 0.390625 -1.835938 0.390625 -2.265625 L 2.21875 -2.265625 C 2.226562 -1.929688 2.304688 -1.679688 2.453125 -1.515625 C 2.597656 -1.347656 2.835938 -1.265625 3.171875 -1.265625 C 3.679688 -1.265625 3.9375 -1.5 3.9375 -1.96875 Z M 3.9375 -1.96875 "/></g></g><g transform="translate(144.00266, 232.04165)"><g><path d="M 3.34375 -1.453125 C 3.90625 -1.453125 4.1875 -1.816406 4.1875 -2.546875 L 6 -2.546875 C 5.988281 -1.742188 5.738281 -1.09375 5.25 -0.59375 C 4.769531 -0.101562 4.148438 0.140625 3.390625 0.140625 C 2.441406 0.140625 1.71875 -0.148438 1.21875 -0.734375 C 0.726562 -1.328125 0.476562 -2.195312 0.46875 -3.34375 L 0.46875 -3.921875 C 0.46875 -5.078125 0.710938 -5.957031 1.203125 -6.5625 C 1.691406 -7.164062 2.414062 -7.46875 3.375 -7.46875 C 4.1875 -7.46875 4.820312 -7.21875 5.28125 -6.71875 C 5.75 -6.21875 5.988281 -5.507812 6 -4.59375 L 4.1875 -4.59375 C 4.1875 -5 4.117188 -5.3125 3.984375 -5.53125 C 3.859375 -5.757812 3.644531 -5.875 3.34375 -5.875 C 3.007812 -5.875 2.769531 -5.753906 2.625 -5.515625 C 2.476562 -5.273438 2.398438 -4.816406 2.390625 -4.140625 L 2.390625 -3.390625 C 2.390625 -2.796875 2.414062 -2.378906 2.46875 -2.140625 C 2.53125 -1.898438 2.628906 -1.722656 2.765625 -1.609375 C 2.898438 -1.503906 3.09375 -1.453125 3.34375 -1.453125 Z M 3.34375 -1.453125 "/></g></g><g transform="translate(150.384618, 232.04165)"><g><path d="M 4.1875 0 C 4.125 -0.113281 4.066406 -0.300781 4.015625 -0.5625 C 3.671875 -0.09375 3.207031 0.140625 2.625 0.140625 C 2.007812 0.140625 1.5 -0.0625 1.09375 -0.46875 C 0.6875 -0.875 0.484375 -1.398438 0.484375 -2.046875 C 0.484375 -2.816406 0.726562 -3.410156 1.21875 -3.828125 C 1.707031 -4.253906 2.414062 -4.472656 3.34375 -4.484375 L 3.921875 -4.484375 L 3.921875 -5.0625 C 3.921875 -5.394531 3.863281 -5.628906 3.75 -5.765625 C 3.632812 -5.898438 3.472656 -5.96875 3.265625 -5.96875 C 2.785156 -5.96875 2.546875 -5.6875 2.546875 -5.125 L 0.625 -5.125 C 0.625 -5.800781 0.875 -6.359375 1.375 -6.796875 C 1.882812 -7.242188 2.53125 -7.46875 3.3125 -7.46875 C 4.113281 -7.46875 4.734375 -7.257812 5.171875 -6.84375 C 5.617188 -6.425781 5.84375 -5.828125 5.84375 -5.046875 L 5.84375 -1.59375 C 5.851562 -0.96875 5.941406 -0.472656 6.109375 -0.109375 L 6.109375 0 Z M 3.046875 -1.375 C 3.253906 -1.375 3.429688 -1.414062 3.578125 -1.5 C 3.734375 -1.582031 3.847656 -1.679688 3.921875 -1.796875 L 3.921875 -3.328125 L 3.46875 -3.328125 C 3.132812 -3.328125 2.875 -3.222656 2.6875 -3.015625 C 2.5 -2.804688 2.40625 -2.53125 2.40625 -2.1875 C 2.40625 -1.644531 2.617188 -1.375 3.046875 -1.375 Z M 3.046875 -1.375 "/></g></g><g transform="translate(156.915623, 232.04165)"><g><path d="M 6.40625 -3.4375 C 6.40625 -2.28125 6.207031 -1.394531 5.8125 -0.78125 C 5.414062 -0.164062 4.828125 0.140625 4.046875 0.140625 C 3.453125 0.140625 2.972656 -0.101562 2.609375 -0.59375 L 2.609375 2.8125 L 0.703125 2.8125 L 0.703125 -7.328125 L 2.46875 -7.328125 L 2.546875 -6.65625 C 2.910156 -7.195312 3.40625 -7.46875 4.03125 -7.46875 C 4.8125 -7.46875 5.398438 -7.179688 5.796875 -6.609375 C 6.191406 -6.046875 6.394531 -5.175781 6.40625 -4 Z M 4.5 -3.921875 C 4.5 -4.628906 4.421875 -5.128906 4.265625 -5.421875 C 4.109375 -5.710938 3.84375 -5.859375 3.46875 -5.859375 C 3.082031 -5.859375 2.796875 -5.691406 2.609375 -5.359375 L 2.609375 -1.9375 C 2.785156 -1.613281 3.078125 -1.453125 3.484375 -1.453125 C 3.867188 -1.453125 4.132812 -1.613281 4.28125 -1.9375 C 4.425781 -2.257812 4.5 -2.757812 4.5 -3.4375 Z M 4.5 -3.921875 "/></g></g><g transform="translate(163.785374, 232.04165)"><g><path d="M 3.65625 0.140625 C 2.675781 0.140625 1.910156 -0.148438 1.359375 -0.734375 C 0.804688 -1.328125 0.53125 -2.171875 0.53125 -3.265625 L 0.53125 -3.84375 C 0.53125 -5 0.78125 -5.890625 1.28125 -6.515625 C 1.789062 -7.148438 2.519531 -7.46875 3.46875 -7.46875 C 4.382812 -7.46875 5.070312 -7.171875 5.53125 -6.578125 C 6 -5.992188 6.238281 -5.125 6.25 -3.96875 L 6.25 -3.015625 L 2.4375 -3.015625 C 2.46875 -2.472656 2.585938 -2.078125 2.796875 -1.828125 C 3.003906 -1.578125 3.332031 -1.453125 3.78125 -1.453125 C 4.425781 -1.453125 4.960938 -1.671875 5.390625 -2.109375 L 6.140625 -0.953125 C 5.898438 -0.628906 5.554688 -0.363281 5.109375 -0.15625 C 4.660156 0.0390625 4.175781 0.140625 3.65625 0.140625 Z M 2.453125 -4.359375 L 4.375 -4.359375 L 4.375 -4.546875 C 4.363281 -4.984375 4.289062 -5.3125 4.15625 -5.53125 C 4.019531 -5.757812 3.785156 -5.875 3.453125 -5.875 C 3.117188 -5.875 2.875 -5.753906 2.71875 -5.515625 C 2.570312 -5.273438 2.484375 -4.890625 2.453125 -4.359375 Z M 2.453125 -4.359375 "/></g></g><g transform="translate(170.424778, 232.04165)"><g/></g><g transform="translate(173.622531, 232.04165)"><g><path d="M 7.5 -1.125 C 7.113281 -0.707031 6.640625 -0.390625 6.078125 -0.171875 C 5.523438 0.0351562 4.914062 0.140625 4.25 0.140625 C 3.113281 0.140625 2.234375 -0.207031 1.609375 -0.90625 C 0.984375 -1.613281 0.660156 -2.640625 0.640625 -3.984375 L 0.640625 -5.765625 C 0.640625 -7.117188 0.9375 -8.160156 1.53125 -8.890625 C 2.125 -9.628906 2.988281 -10 4.125 -10 C 5.195312 -10 6.003906 -9.734375 6.546875 -9.203125 C 7.097656 -8.679688 7.414062 -7.851562 7.5 -6.71875 L 5.5625 -6.71875 C 5.507812 -7.34375 5.378906 -7.769531 5.171875 -8 C 4.960938 -8.226562 4.632812 -8.34375 4.1875 -8.34375 C 3.65625 -8.34375 3.265625 -8.144531 3.015625 -7.75 C 2.773438 -7.363281 2.648438 -6.738281 2.640625 -5.875 L 2.640625 -4.09375 C 2.640625 -3.195312 2.773438 -2.539062 3.046875 -2.125 C 3.316406 -1.71875 3.757812 -1.515625 4.375 -1.515625 C 4.757812 -1.515625 5.078125 -1.59375 5.328125 -1.75 L 5.5 -1.875 L 5.5 -3.6875 L 4.109375 -3.6875 L 4.109375 -5.1875 L 7.5 -5.1875 Z M 7.5 -1.125 "/></g></g><g transform="translate(181.738864, 232.04165)"><g><path d="M 4.1875 0 C 4.125 -0.113281 4.066406 -0.300781 4.015625 -0.5625 C 3.671875 -0.09375 3.207031 0.140625 2.625 0.140625 C 2.007812 0.140625 1.5 -0.0625 1.09375 -0.46875 C 0.6875 -0.875 0.484375 -1.398438 0.484375 -2.046875 C 0.484375 -2.816406 0.726562 -3.410156 1.21875 -3.828125 C 1.707031 -4.253906 2.414062 -4.472656 3.34375 -4.484375 L 3.921875 -4.484375 L 3.921875 -5.0625 C 3.921875 -5.394531 3.863281 -5.628906 3.75 -5.765625 C 3.632812 -5.898438 3.472656 -5.96875 3.265625 -5.96875 C 2.785156 -5.96875 2.546875 -5.6875 2.546875 -5.125 L 0.625 -5.125 C 0.625 -5.800781 0.875 -6.359375 1.375 -6.796875 C 1.882812 -7.242188 2.53125 -7.46875 3.3125 -7.46875 C 4.113281 -7.46875 4.734375 -7.257812 5.171875 -6.84375 C 5.617188 -6.425781 5.84375 -5.828125 5.84375 -5.046875 L 5.84375 -1.59375 C 5.851562 -0.96875 5.941406 -0.472656 6.109375 -0.109375 L 6.109375 0 Z M 3.046875 -1.375 C 3.253906 -1.375 3.429688 -1.414062 3.578125 -1.5 C 3.734375 -1.582031 3.847656 -1.679688 3.921875 -1.796875 L 3.921875 -3.328125 L 3.46875 -3.328125 C 3.132812 -3.328125 2.875 -3.222656 2.6875 -3.015625 C 2.5 -2.804688 2.40625 -2.53125 2.40625 -2.1875 C 2.40625 -1.644531 2.617188 -1.375 3.046875 -1.375 Z M 3.046875 -1.375 "/></g></g><g transform="translate(188.269869, 232.04165)"><g><path d="M 2.5 -7.328125 L 2.546875 -6.65625 C 2.984375 -7.195312 3.550781 -7.46875 4.25 -7.46875 C 4.988281 -7.46875 5.507812 -7.140625 5.8125 -6.484375 C 6.226562 -7.140625 6.820312 -7.46875 7.59375 -7.46875 C 8.882812 -7.46875 9.546875 -6.578125 9.578125 -4.796875 L 9.578125 0 L 7.65625 0 L 7.65625 -4.6875 C 7.65625 -5.101562 7.59375 -5.398438 7.46875 -5.578125 C 7.351562 -5.765625 7.160156 -5.859375 6.890625 -5.859375 C 6.523438 -5.859375 6.253906 -5.640625 6.078125 -5.203125 L 6.09375 -4.96875 L 6.09375 0 L 4.1875 0 L 4.1875 -4.671875 C 4.1875 -5.085938 4.128906 -5.390625 4.015625 -5.578125 C 3.898438 -5.765625 3.695312 -5.859375 3.40625 -5.859375 C 3.070312 -5.859375 2.8125 -5.679688 2.625 -5.328125 L 2.625 0 L 0.703125 0 L 0.703125 -7.328125 Z M 2.5 -7.328125 "/></g></g><g transform="translate(198.560945, 232.04165)"><g><path d="M 3.65625 0.140625 C 2.675781 0.140625 1.910156 -0.148438 1.359375 -0.734375 C 0.804688 -1.328125 0.53125 -2.171875 0.53125 -3.265625 L 0.53125 -3.84375 C 0.53125 -5 0.78125 -5.890625 1.28125 -6.515625 C 1.789062 -7.148438 2.519531 -7.46875 3.46875 -7.46875 C 4.382812 -7.46875 5.070312 -7.171875 5.53125 -6.578125 C 6 -5.992188 6.238281 -5.125 6.25 -3.96875 L 6.25 -3.015625 L 2.4375 -3.015625 C 2.46875 -2.472656 2.585938 -2.078125 2.796875 -1.828125 C 3.003906 -1.578125 3.332031 -1.453125 3.78125 -1.453125 C 4.425781 -1.453125 4.960938 -1.671875 5.390625 -2.109375 L 6.140625 -0.953125 C 5.898438 -0.628906 5.554688 -0.363281 5.109375 -0.15625 C 4.660156 0.0390625 4.175781 0.140625 3.65625 0.140625 Z M 2.453125 -4.359375 L 4.375 -4.359375 L 4.375 -4.546875 C 4.363281 -4.984375 4.289062 -5.3125 4.15625 -5.53125 C 4.019531 -5.757812 3.785156 -5.875 3.453125 -5.875 C 3.117188 -5.875 2.875 -5.753906 2.71875 -5.515625 C 2.570312 -5.273438 2.484375 -4.890625 2.453125 -4.359375 Z M 2.453125 -4.359375 "/></g></g><g transform="translate(205.200349, 232.04165)"><g/></g><g transform="translate(208.398103, 232.04165)"><g><path d="M 7.734375 -4.046875 C 7.734375 -2.722656 7.421875 -1.691406 6.796875 -0.953125 C 6.171875 -0.222656 5.300781 0.140625 4.1875 0.140625 C 3.082031 0.140625 2.210938 -0.222656 1.578125 -0.953125 C 0.953125 -1.679688 0.632812 -2.695312 0.625 -4 L 0.625 -5.6875 C 0.625 -7.039062 0.9375 -8.097656 1.5625 -8.859375 C 2.1875 -9.617188 3.0625 -10 4.1875 -10 C 5.28125 -10 6.140625 -9.625 6.765625 -8.875 C 7.398438 -8.125 7.722656 -7.078125 7.734375 -5.734375 Z M 5.734375 -5.703125 C 5.734375 -6.585938 5.609375 -7.242188 5.359375 -7.671875 C 5.109375 -8.109375 4.71875 -8.328125 4.1875 -8.328125 C 3.65625 -8.328125 3.257812 -8.117188 3 -7.703125 C 2.75 -7.285156 2.617188 -6.648438 2.609375 -5.796875 L 2.609375 -4.046875 C 2.609375 -3.179688 2.738281 -2.546875 3 -2.140625 C 3.257812 -1.734375 3.65625 -1.53125 4.1875 -1.53125 C 4.707031 -1.53125 5.09375 -1.726562 5.34375 -2.125 C 5.601562 -2.519531 5.734375 -3.140625 5.734375 -3.984375 Z M 5.734375 -5.703125 "/></g></g><g transform="translate(216.771882, 232.04165)"><g><path d="M 2.453125 -7.328125 L 2.5 -6.609375 C 2.9375 -7.179688 3.503906 -7.46875 4.203125 -7.46875 C 5.460938 -7.46875 6.113281 -6.582031 6.15625 -4.8125 L 6.15625 0 L 4.234375 0 L 4.234375 -4.671875 C 4.234375 -5.085938 4.171875 -5.390625 4.046875 -5.578125 C 3.921875 -5.765625 3.703125 -5.859375 3.390625 -5.859375 C 3.035156 -5.859375 2.765625 -5.679688 2.578125 -5.328125 L 2.578125 0 L 0.65625 0 L 0.65625 -7.328125 Z M 2.453125 -7.328125 "/></g></g><g transform="translate(223.600983, 232.04165)"><g><path d="M 2.703125 0 L 0.78125 0 L 0.78125 -10.40625 L 2.703125 -10.40625 Z M 2.703125 0 "/></g></g><g transform="translate(227.096832, 232.04165)"><g><path d="M 2.703125 0 L 0.78125 0 L 0.78125 -7.328125 L 2.703125 -7.328125 Z M 0.703125 -9.234375 C 0.703125 -9.523438 0.796875 -9.765625 0.984375 -9.953125 C 1.171875 -10.148438 1.421875 -10.25 1.734375 -10.25 C 2.054688 -10.25 2.3125 -10.148438 2.5 -9.953125 C 2.6875 -9.765625 2.78125 -9.523438 2.78125 -9.234375 C 2.78125 -8.929688 2.6875 -8.679688 2.5 -8.484375 C 2.3125 -8.296875 2.054688 -8.203125 1.734375 -8.203125 C 1.421875 -8.203125 1.171875 -8.296875 0.984375 -8.484375 C 0.796875 -8.679688 0.703125 -8.929688 0.703125 -9.234375 Z M 0.703125 -9.234375 "/></g></g><g transform="translate(230.592682, 232.04165)"><g><path d="M 2.453125 -7.328125 L 2.5 -6.609375 C 2.9375 -7.179688 3.503906 -7.46875 4.203125 -7.46875 C 5.460938 -7.46875 6.113281 -6.582031 6.15625 -4.8125 L 6.15625 0 L 4.234375 0 L 4.234375 -4.671875 C 4.234375 -5.085938 4.171875 -5.390625 4.046875 -5.578125 C 3.921875 -5.765625 3.703125 -5.859375 3.390625 -5.859375 C 3.035156 -5.859375 2.765625 -5.679688 2.578125 -5.328125 L 2.578125 0 L 0.65625 0 L 0.65625 -7.328125 Z M 2.453125 -7.328125 "/></g></g><g transform="translate(237.421783, 232.04165)"><g><path d="M 3.65625 0.140625 C 2.675781 0.140625 1.910156 -0.148438 1.359375 -0.734375 C 0.804688 -1.328125 0.53125 -2.171875 0.53125 -3.265625 L 0.53125 -3.84375 C 0.53125 -5 0.78125 -5.890625 1.28125 -6.515625 C 1.789062 -7.148438 2.519531 -7.46875 3.46875 -7.46875 C 4.382812 -7.46875 5.070312 -7.171875 5.53125 -6.578125 C 6 -5.992188 6.238281 -5.125 6.25 -3.96875 L 6.25 -3.015625 L 2.4375 -3.015625 C 2.46875 -2.472656 2.585938 -2.078125 2.796875 -1.828125 C 3.003906 -1.578125 3.332031 -1.453125 3.78125 -1.453125 C 4.425781 -1.453125 4.960938 -1.671875 5.390625 -2.109375 L 6.140625 -0.953125 C 5.898438 -0.628906 5.554688 -0.363281 5.109375 -0.15625 C 4.660156 0.0390625 4.175781 0.140625 3.65625 0.140625 Z M 2.453125 -4.359375 L 4.375 -4.359375 L 4.375 -4.546875 C 4.363281 -4.984375 4.289062 -5.3125 4.15625 -5.53125 C 4.019531 -5.757812 3.785156 -5.875 3.453125 -5.875 C 3.117188 -5.875 2.875 -5.753906 2.71875 -5.515625 C 2.570312 -5.273438 2.484375 -4.890625 2.453125 -4.359375 Z M 2.453125 -4.359375 "/></g></g></g></svg>